<svg xmlns="http://www.w3.org/2000/svg" width="320" height="240" viewBox="0 0 320 240" style="background:#4f4f4f">
  <g fill="none" fill-rule="evenodd">
    <g stroke="#FFFFFF" opacity=".07" stroke-linecap="square">
      <path d="M32.5.483870968L32.5 239.547464M119.5.483870968L119.5 239.547464M206.5.483870968L206.5 239.547464M293.5.483870968L293.5 239.547464M.444444444 29.5L319.566705 29.5M.444444444 116.5L319.566705 116.5M.444444444 203.5L319.566705 203.5"/>
    </g>
    <g transform="translate(72 43)">
      <path fill="#FFFFFF" d="M158.242974,65 L99.3471978,27.5 C90.6126547,22 80.3807613,19 69.4001928,19 C38.2053959,19 13,44.25 13,75.5 C13,106.75 38.2053959,132 69.4001928,132 C80.3807613,132 90.6126547,128.75 99.3471978,123.5 L158.242974,86 C161.736792,83.75 163.982817,80 163.982817,75.5 C164.232375,71 161.736792,67 158.242974,65 L158.242974,65 Z M69.4001928,121 C44.4443553,121 23.9805685,100.75 23.9805685,75.5 C23.9805685,50.25 44.1947969,30 69.4001928,30 C94.6055887,30 114.819817,50.25 114.819817,75.5 C114.819817,100.75 94.3560303,121 69.4001928,121 L69.4001928,121 Z" opacity=".187" transform="rotate(-16 88.5 75.5)"/>
      <path fill="#249445" d="M84.1506356,102.463744 L93.9938682,102.463744 L93.9938682,103 C93.9979488,102.821737 94,102.642978 94,102.463744 C94,91.4964683 86.319805,82.3064954 75.9860206,79.8639702 C80.7943885,77.7752764 84.152381,73.0249008 84.152381,67.4990336 C84.152381,60.0437232 78.0400018,54 70.5,54 C62.9599982,54 56.847619,60.0437232 56.847619,67.4990336 C56.847619,73.0249008 60.2056115,77.7752764 65.0139794,79.8639702 C54.680195,82.3064954 47,91.4964683 47,102.463744 L56.8493644,102.463744 C56.8482022,102.390131 56.847619,102.316364 56.847619,102.242448 C56.847619,94.7183965 62.8904762,88.7434144 70.5,88.7434144 C78.1095238,88.7434144 84.152381,94.7183965 84.152381,102.242448 C84.152381,102.316364 84.1517978,102.390131 84.1506356,102.463744 Z"/>
      <ellipse cx="70.5" cy="80.5" stroke="#939393" stroke-width="2" rx="50.5" ry="50.5"/>
      <ellipse cx="118.5" cy="66.5" fill="#D8D8D8" stroke="#979797" rx="7.5" ry="7.5"/>
    </g>
  </g>
</svg>
