<svg xmlns="http://www.w3.org/2000/svg" width="320" height="240" viewBox="0 0 320 240" style="background:#4f4f4f">
  <g fill="none" fill-rule="evenodd">
    <g stroke="#FFFFFF" opacity=".07" stroke-linecap="square">
      <path d="M12.5.483870968L12.5 239.547464M99.5.483870968L99.5 239.547464M186.5.483870968L186.5 239.547464M273.5.483870968L273.5 239.547464M.444444444 78.5L319.566705 78.5M.444444444 166.5L319.566705 166.5"/>
    </g>
    <g transform="translate(72 43)">
      <path fill="#FFFFFF" d="M158.242974,65 L99.3471978,27.5 C90.6126547,22 80.3807613,19 69.4001928,19 C38.2053959,19 13,44.25 13,75.5 C13,106.75 38.2053959,132 69.4001928,132 C80.3807613,132 90.6126547,128.75 99.3471978,123.5 L158.242974,86 C161.736792,83.75 163.982817,80 163.982817,75.5 C164.232375,71 161.736792,67 158.242974,65 L158.242974,65 Z M69.4001928,121 C44.4443553,121 23.9805685,100.75 23.9805685,75.5 C23.9805685,50.25 44.1947969,30 69.4001928,30 C94.6055887,30 114.819817,50.25 114.819817,75.5 C114.819817,100.75 94.3560303,121 69.4001928,121 L69.4001928,121 Z" opacity=".187" transform="rotate(-16 88.5 75.5)"/>
      <path fill="#249445" d="M81.643376,98.0622397 L89.6786679,98.0622397 L89.6786679,98.5 C89.681999,98.3544792 89.6836735,98.2085532 89.6836735,98.0622397 C89.6836735,89.1093619 83.4141266,81.6073432 74.9783841,79.6134451 C78.9035825,77.9083889 81.6448008,74.0305313 81.6448008,69.5196193 C81.6448008,63.4336516 76.6551035,58.5 70.5,58.5 C64.3448965,58.5 59.3551992,63.4336516 59.3551992,69.5196193 C59.3551992,74.0305313 62.0964175,77.9083889 66.0216159,79.6134451 C57.5858734,81.6073432 51.3163265,89.1093619 51.3163265,98.0622397 L59.356624,98.0622397 C59.3556753,98.0021476 59.3551992,97.9419299 59.3551992,97.8815903 C59.3551992,91.7395074 64.2881438,86.861971 70.5,86.861971 C76.7118562,86.861971 81.6448008,91.7395074 81.6448008,97.8815903 C81.6448008,97.9419299 81.6443247,98.0021476 81.643376,98.0622397 Z"/>
      <ellipse cx="70.5" cy="80.5" stroke="#939393" stroke-width="2" rx="50.5" ry="50.5"/>
      <ellipse cx="118.5" cy="66.5" fill="#D8D8D8" stroke="#979797" rx="7.5" ry="7.5"/>
    </g>
  </g>
</svg>
