<svg xmlns="http://www.w3.org/2000/svg" width="320" height="240" viewBox="0 0 320 240" style="background:#65778e">
  <defs>
    <radialGradient id="a" r="54.659%" fx="50%" fy="50%">
      <stop stop-color="#C6DBF3" offset="0%"/>
      <stop stop-color="#19262E" offset="100%"/>
    </radialGradient>
  </defs>
  <g fill="none" fill-rule="evenodd">
    <rect width="320" height="240" fill="url(#a)"/>
    <rect width="320" height="240" fill="#65778E"/>
    <g transform="translate(27 75)">
      <g fill="#1D1D1B" transform="translate(3)">
        <path d="M20,0.3 L19.8,13 L7.8,12.6 L7.7,18.8 L14.1,19.1 C17.1,19.2 19,20.6 20,23.3 C20.7,25 20.9,27.8 20.9,31.8 L20.8,41.5 C20.7,45.5 20.1,48.6 18.8,50.7 C17.4,53 15.6,54 13.2,53.7 L0.9,52.1 L1.1,39.8 L10.7,40.8 C12.4,41 13.2,40.2 13.2,38.6 L13.3,34.2 C13.3,32.6 12.5,31.8 10.8,31.7 L0.4,30.9 L1,0.3 L20,0.3 L20,0.3 Z"/>
        <polygon points="24.5 42.1 32.5 42.9 32.3 56.2 24.3 55.1"/>
        <path d="M36.7 56.8L37.4.3 55.2.3C57.5.3 59.4 1.5 61 3.8 62.6 6.3 63.3 9.6 63.3 13.7L63.3 16.7C63.2 21.9 61.9 25.7 59.4 28.1 61.9 32.4 63.1 36.4 63.1 40.2L63 44.9C63 49.1 62.2 52.6 60.8 55.3 59.2 58.3 57.2 59.6 54.6 59.2L36.7 56.8 36.7 56.8zM45.7 13.8L45.6 21.3 51.3 21.6C53.2 21.7 54.1 20.7 54.1 18.6L54.1 17.3C54.1 15.2 53.2 14 51.4 14L45.7 13.8 45.7 13.8zM45.5 34.9L45.4 44.2 51.1 44.8C53 45 53.9 44 53.9 42L53.9 38.8C53.9 36.7 53 35.6 51.2 35.4L45.5 34.9 45.5 34.9zM68.1 16.5C68.1 11.1 69.2 7 71.3 4.2 73.2 1.6 75.7.3 79 .3L89.1.3C91.9.3 94.4 2.3 96.6 6.3 98.6 9.9 99.7 13.5 99.6 17L99.4 48.4C99.4 53.1 98.2 56.9 96 60 93.9 62.8 91.6 64 89.2 63.7L76.4 62C73.9 61.7 71.9 59.8 70.3 56.3 68.7 52.9 67.9 48.7 68 43.7L68.1 16.5 68.1 16.5zM77.9 18.6L77.7 43C77.7 44.1 77.9 45.2 78.5 46.1 79 47.1 79.7 47.6 80.5 47.7L85.5 48.2C86.4 48.3 87.2 47.8 87.9 46.8 88.5 45.9 88.8 45 88.8 43.9L89 19C89 17.8 88.7 16.9 88.1 16.1 87.5 15.3 86.7 15 85.8 14.9L80.6 14.7C78.7 14.8 77.9 16.1 77.9 18.6L77.9 18.6zM105.3 17.8C105.3 12 106.5 7.5 108.9 4.5 111.1 1.7 114 .2 117.8.2L129.6.2C132.9.2 135.8 2.4 138.5 6.7 140.9 10.6 142.1 14.5 142.1 18.3L142.1 52.5C142.1 57.6 140.8 61.8 138.1 65.1 135.6 68.1 133 69.4 130.1 69.1L115.1 67.1C112.2 66.7 109.8 64.6 107.9 60.9 106 57.2 105.1 52.6 105.1 47.3L105.3 17.8 105.3 17.8zM116.7 20.2L116.6 46.6C116.6 47.8 116.9 49 117.6 50 118.2 51 119 51.6 120 51.7L125.8 52.3C126.8 52.4 127.8 51.9 128.6 50.8 129.3 49.8 129.6 48.8 129.6 47.7L129.6 20.6C129.6 19.3 129.2 18.3 128.5 17.5 127.8 16.7 126.9 16.3 125.7 16.2L119.6 16C117.7 16 116.7 17.4 116.7 20.2L116.7 20.2z"/>
        <polygon points="149 71.6 149 .3 164 .3 177.3 33.8 191 .3 208.5 .3 209.1 79.5 193.2 77.4 193 37.5 177.6 74.4 162.7 35.6 162.8 73.4"/>
        <path d="M217.2.2L234.3.2 234.9 55.9 217.6 54.4 217.2.2 217.2.2zM217.7 61.5L235 63.2 235.2 82.9 217.9 80.6 217.7 61.5 217.7 61.5zM243.9.2L262.6.2 263.4 58.5 244.6 56.8 243.9.2 243.9.2zM244.7 64.2L263.6 66.1 263.9 86.7 245 84.2 244.7 64.2 244.7 64.2z"/>
      </g>
      <g fill="#F9DB00" stroke="#1D1D1B" transform="translate(0 1)">
        <path d="M19.7,1.1 L19.5,14.1 L7.5,13.7 L7.3,20 L13.7,20.3 C16.7,20.4 18.7,21.9 19.6,24.6 C20.3,26.3 20.5,29.2 20.5,33.2 L20.4,43 C20.3,47.1 19.7,50.2 18.4,52.3 C17,54.6 15.2,55.6 12.8,55.3 L0.5,53.7 L0.7,41.2 L10.3,42.2 C12,42.4 12.8,41.6 12.8,39.9 L12.9,35.4 C12.9,33.8 12.1,33 10.4,32.8 L-7.10542736e-15,32 L0.5,1 L19.7,1.1 L19.7,1.1 Z"/>
        <polygon points="24.1 43.6 32.1 44.4 31.9 57.9 23.9 56.8"/>
        <path d="M36.4 58.5L37.1 1.1 55 1C57.3 1 59.2 2.2 60.8 4.5 62.4 7 63.1 10.4 63.1 14.5L63.1 17.5C63 22.8 61.7 26.7 59.2 29 61.7 33.4 62.9 37.5 62.9 41.3L62.8 46.1C62.8 50.4 62 53.9 60.6 56.7 59 59.7 57 61 54.4 60.7L36.4 58.5 36.4 58.5zM45.4 14.8L45.3 22.4 51 22.7C52.9 22.8 53.8 21.8 53.8 19.6L53.8 18.3C53.8 16.1 52.9 15 51 14.9L45.4 14.8 45.4 14.8zM45.1 36.2L45 45.7 50.7 46.3C52.6 46.5 53.5 45.5 53.5 43.4L53.5 40.1C53.5 38 52.6 36.8 50.7 36.7L45.1 36.2 45.1 36.2zM67.9 17.6C67.9 12.1 69 7.9 71 5 72.9 2.3 75.4 1 78.7 1L88.8 1C91.6 1 94.1 3 96.3 7.1 98.3 10.8 99.3 14.4 99.3 17.9L99.1 49.8C99.1 54.5 97.9 58.5 95.6 61.6 93.5 64.5 91.2 65.7 88.8 65.4L76 63.7C73.5 63.4 71.5 61.4 69.9 57.9 68.3 54.4 67.5 50.2 67.6 45.1L67.9 17.6 67.9 17.6zM77.6 19.7L77.4 44.5C77.4 45.7 77.6 46.7 78.2 47.7 78.7 48.7 79.4 49.2 80.2 49.3L85.2 49.8C86.1 49.9 86.9 49.4 87.6 48.4 88.2 47.5 88.5 46.5 88.5 45.5L88.7 20.1C88.7 18.9 88.4 17.9 87.8 17.2 87.2 16.4 86.4 16 85.5 16L80.3 15.8C78.5 15.8 77.6 17.1 77.6 19.7L77.6 19.7zM105.1 18.9C105.1 13 106.3 8.5 108.7 5.3 110.9 2.4 113.8 1 117.6 1L129.4 1C132.7 1 135.6 3.2 138.3 7.6 140.7 11.6 141.9 15.5 141.9 19.4L141.9 54.1C141.9 59.2 140.5 63.5 137.9 66.9 135.4 70 132.8 71.3 129.9 70.9L114.8 68.9C111.9 68.5 109.5 66.4 107.6 62.6 105.7 58.8 104.8 54.2 104.8 48.7L105.1 18.9 105.1 18.9zM116.5 21.2L116.4 48C116.4 49.3 116.7 50.4 117.4 51.5 118 52.6 118.8 53.1 119.8 53.2L125.6 53.8C126.6 53.9 127.6 53.4 128.4 52.3 129.1 51.3 129.4 50.3 129.4 49.2L129.4 21.7C129.4 20.4 129 19.4 128.3 18.5 127.6 17.7 126.6 17.2 125.5 17.2L119.4 17C117.5 17 116.5 18.4 116.5 21.2L116.5 21.2z"/>
        <polygon points="148.9 73.4 148.9 .9 163.9 .9 177.2 34.9 190.9 .8 208.4 .8 209 81.3 193.1 79.2 192.9 38.7 177.5 76.2 162.6 36.8 162.7 75.2"/>
        <path d="M217.1.9L234.3.9 234.9 57.5 217.6 56 217.1.9 217.1.9zM217.7 63.1L235 64.9 235.2 84.9 217.9 82.6 217.7 63.1 217.7 63.1zM243.9.9L262.6.9 263.4 60.1 244.5 58.4 243.9.9 243.9.9zM244.6 65.9L263.5 67.8 263.8 88.7 244.9 86.2 244.6 65.9 244.6 65.9z"/>
      </g>
    </g>
  </g>
</svg>
