<svg xmlns="http://www.w3.org/2000/svg" width="320" height="240" viewBox="0 0 320 240" style="background:#232323">
  <g fill="none" fill-rule="evenodd" transform="translate(53 40)">
    <rect width="30.829" height="2.807" y="157.193" fill="#4791B3"/>
    <rect width="30.829" height="2.807" y="151.579" fill="#4791B3"/>
    <rect width="30.829" height="2.807" y="145.965" fill="#4791B3"/>
    <rect width="30.829" height="2.807" y="140.351" fill="#4791B3"/>
    <rect width="30.829" height="2.807" y="134.737" fill="#4791B3"/>
    <rect width="30.829" height="2.807" y="129.123" fill="#4791B3"/>
    <rect width="30.829" height="2.807" y="123.509" fill="#4791B3"/>
    <rect width="30.829" height="2.807" y="117.895" fill="#4791B3"/>
    <rect width="30.829" height="2.807" y="112.281" fill="#4791B3"/>
    <rect width="30.829" height="2.807" y="106.667" fill="#4791B3"/>
    <rect width="30.829" height="2.807" y="101.053" fill="#4791B3"/>
    <rect width="30.829" height="2.807" y="95.439" fill="#4791B3"/>
    <rect width="30.829" height="2.807" y="89.825" fill="#4791B3"/>
    <rect width="30.829" height="2.807" y="84.211" fill="#4791B3"/>
    <rect width="30.829" height="2.807" y="78.596" fill="#4791B3"/>
    <rect width="30.829" height="2.807" y="72.982" fill="#BB783D"/>
    <rect width="30.829" height="2.807" y="67.368" fill="#BB783D"/>
    <rect width="30.829" height="2.807" y="61.754" fill="#BB783D"/>
    <rect width="30.829" height="2.807" y="56.14" fill="#BB783D"/>
    <rect width="30.829" height="2.807" y="50.526" fill="#FFFFFF" fill-opacity=".218"/>
    <rect width="30.829" height="2.807" y="44.912" fill="#FFFFFF" fill-opacity=".218"/>
    <rect width="30.829" height="2.807" y="39.298" fill="#FFFFFF" fill-opacity=".218"/>
    <rect width="30.829" height="2.807" y="33.684" fill="#FFFFFF"/>
    <rect width="30.829" height="2.807" y="28.07" fill="#FFFFFF" fill-opacity=".218"/>
    <rect width="30.829" height="2.807" y="22.456" fill="#FFFFFF" fill-opacity=".218"/>
    <rect width="30.829" height="2.807" y="16.842" fill="#FFFFFF" fill-opacity=".218"/>
    <rect width="30.829" height="2.807" y="11.228" fill="#FFFFFF" fill-opacity=".218"/>
    <rect width="30.829" height="2.807" y="5.614" fill="#FFFFFF" fill-opacity=".218"/>
    <rect width="30.829" height="2.807" fill="#FFFFFF" fill-opacity=".218"/>
    <rect width="30.829" height="2.807" x="109.303" y="157.193" fill="#4791B3"/>
    <rect width="30.829" height="2.807" x="109.303" y="151.579" fill="#4791B3"/>
    <rect width="30.829" height="2.807" x="109.303" y="145.965" fill="#4791B3"/>
    <rect width="30.829" height="2.807" x="109.303" y="140.351" fill="#4791B3"/>
    <rect width="30.829" height="2.807" x="109.303" y="134.737" fill="#4791B3"/>
    <rect width="30.829" height="2.807" x="109.303" y="129.123" fill="#4791B3"/>
    <rect width="30.829" height="2.807" x="109.303" y="123.509" fill="#4791B3"/>
    <rect width="30.829" height="2.807" x="109.303" y="117.895" fill="#4791B3"/>
    <rect width="30.829" height="2.807" x="109.303" y="112.281" fill="#4791B3"/>
    <rect width="30.829" height="2.807" x="109.303" y="106.667" fill="#4791B3"/>
    <rect width="30.829" height="2.807" x="109.303" y="101.053" fill="#4791B3"/>
    <rect width="30.829" height="2.807" x="109.303" y="95.439" fill="#4791B3"/>
    <rect width="30.829" height="2.807" x="109.303" y="89.825" fill="#4791B3"/>
    <rect width="30.829" height="2.807" x="109.303" y="84.211" fill="#4791B3"/>
    <rect width="30.829" height="2.807" x="109.303" y="78.596" fill="#4791B3"/>
    <rect width="30.829" height="2.807" x="109.303" y="72.982" fill="#BB783D"/>
    <rect width="30.829" height="2.807" x="109.303" y="67.368" fill="#BB783D"/>
    <rect width="30.829" height="2.807" x="109.303" y="61.754" fill="#BB783D"/>
    <rect width="30.829" height="2.807" x="109.303" y="56.14" fill="#BB783D"/>
    <rect width="30.829" height="2.807" x="109.303" y="50.526" fill="#BB783D"/>
    <rect width="30.829" height="2.807" x="109.303" y="44.912" fill="#BB783D"/>
    <rect width="30.829" height="2.807" x="109.303" y="39.298" fill="#BB783D"/>
    <rect width="30.829" height="2.807" x="109.303" y="33.684" fill="#BB783D"/>
    <rect width="30.829" height="2.807" x="109.303" y="28.07" fill="#BB783D"/>
    <rect width="30.829" height="2.807" x="109.303" y="22.456" fill="#BB783D"/>
    <rect width="30.829" height="2.807" x="109.303" y="16.842" fill="#BB783D"/>
    <rect width="30.829" height="2.807" x="109.303" y="11.228" fill="#FFFFFF" fill-opacity=".218"/>
    <rect width="30.829" height="2.807" x="109.303" y="5.614" fill="#FFFFFF" fill-opacity=".218"/>
    <rect width="30.829" height="2.807" x="109.303" fill="#FFFFFF"/>
    <rect width="30.829" height="2.807" x="36.434" y="157.193" fill="#4791B3"/>
    <rect width="30.829" height="2.807" x="36.434" y="151.579" fill="#4791B3"/>
    <rect width="30.829" height="2.807" x="36.434" y="145.965" fill="#4791B3"/>
    <rect width="30.829" height="2.807" x="36.434" y="140.351" fill="#4791B3"/>
    <rect width="30.829" height="2.807" x="36.434" y="134.737" fill="#4791B3"/>
    <rect width="30.829" height="2.807" x="36.434" y="129.123" fill="#4791B3"/>
    <rect width="30.829" height="2.807" x="36.434" y="123.509" fill="#4791B3"/>
    <rect width="30.829" height="2.807" x="36.434" y="117.895" fill="#4791B3"/>
    <rect width="30.829" height="2.807" x="36.434" y="112.281" fill="#4791B3"/>
    <rect width="30.829" height="2.807" x="36.434" y="106.667" fill="#4791B3"/>
    <rect width="30.829" height="2.807" x="36.434" y="101.053" fill="#4791B3"/>
    <rect width="30.829" height="2.807" x="36.434" y="95.439" fill="#4791B3"/>
    <rect width="30.829" height="2.807" x="36.434" y="89.825" fill="#4791B3"/>
    <rect width="30.829" height="2.807" x="36.434" y="84.211" fill="#4791B3"/>
    <rect width="30.829" height="2.807" x="36.434" y="78.596" fill="#4791B3"/>
    <rect width="30.829" height="2.807" x="36.434" y="72.982" fill="#BB783D"/>
    <rect width="30.829" height="2.807" x="36.434" y="67.368" fill="#BB783D"/>
    <rect width="30.829" height="2.807" x="36.434" y="61.754" fill="#BB783D"/>
    <rect width="30.829" height="2.807" x="36.434" y="56.14" fill="#BB783D"/>
    <rect width="30.829" height="2.807" x="36.434" y="50.526" fill="#BB783D"/>
    <rect width="30.829" height="2.807" x="36.434" y="44.912" fill="#BB783D"/>
    <rect width="30.829" height="2.807" x="36.434" y="39.298" fill="#BB783D"/>
    <rect width="30.829" height="2.807" x="36.434" y="33.684" fill="#BB783D"/>
    <rect width="30.829" height="2.807" x="36.434" y="28.07" fill="#FFFFFF" fill-opacity=".218"/>
    <rect width="30.829" height="2.807" x="36.434" y="22.456" fill="#FFFFFF" fill-opacity=".218"/>
    <rect width="30.829" height="2.807" x="36.434" y="16.842" fill="#FFFFFF" fill-opacity=".218"/>
    <rect width="30.829" height="2.807" x="36.434" y="11.228" fill="#FFFFFF"/>
    <rect width="30.829" height="2.807" x="36.434" y="5.614" fill="#FFFFFF" fill-opacity=".218"/>
    <rect width="30.829" height="2.807" x="36.434" fill="#FFFFFF" fill-opacity=".218"/>
    <rect width="30.829" height="2.807" x="145.737" y="157.193" fill="#4791B3"/>
    <rect width="30.829" height="2.807" x="145.737" y="151.579" fill="#4791B3"/>
    <rect width="30.829" height="2.807" x="145.737" y="145.965" fill="#4791B3"/>
    <rect width="30.829" height="2.807" x="145.737" y="140.351" fill="#4791B3"/>
    <rect width="30.829" height="2.807" x="145.737" y="134.737" fill="#4791B3"/>
    <rect width="30.829" height="2.807" x="145.737" y="129.123" fill="#4791B3"/>
    <rect width="30.829" height="2.807" x="145.737" y="123.509" fill="#4791B3"/>
    <rect width="30.829" height="2.807" x="145.737" y="117.895" fill="#4791B3"/>
    <rect width="30.829" height="2.807" x="145.737" y="112.281" fill="#4791B3"/>
    <rect width="30.829" height="2.807" x="145.737" y="106.667" fill="#4791B3"/>
    <rect width="30.829" height="2.807" x="145.737" y="101.053" fill="#4791B3"/>
    <rect width="30.829" height="2.807" x="145.737" y="95.439" fill="#4791B3"/>
    <rect width="30.829" height="2.807" x="145.737" y="89.825" fill="#FFFFFF" fill-opacity=".218"/>
    <rect width="30.829" height="2.807" x="145.737" y="84.211" fill="#FFFFFF" fill-opacity=".218"/>
    <rect width="30.829" height="2.807" x="145.737" y="78.596" fill="#FFFFFF" fill-opacity=".218"/>
    <rect width="30.829" height="2.807" x="145.737" y="72.982" fill="#FFFFFF" fill-opacity=".218"/>
    <rect width="30.829" height="2.807" x="145.737" y="67.368" fill="#FFFFFF"/>
    <rect width="30.829" height="2.807" x="145.737" y="61.754" fill="#FFFFFF" fill-opacity=".218"/>
    <rect width="30.829" height="2.807" x="145.737" y="56.14" fill="#FFFFFF" fill-opacity=".218"/>
    <rect width="30.829" height="2.807" x="145.737" y="50.526" fill="#FFFFFF" fill-opacity=".218"/>
    <rect width="30.829" height="2.807" x="145.737" y="44.912" fill="#FFFFFF" fill-opacity=".218"/>
    <rect width="30.829" height="2.807" x="145.737" y="39.298" fill="#FFFFFF" fill-opacity=".218"/>
    <rect width="30.829" height="2.807" x="145.737" y="33.684" fill="#FFFFFF" fill-opacity=".218"/>
    <rect width="30.829" height="2.807" x="145.737" y="28.07" fill="#FFFFFF" fill-opacity=".218"/>
    <rect width="30.829" height="2.807" x="145.737" y="22.456" fill="#FFFFFF" fill-opacity=".218"/>
    <rect width="30.829" height="2.807" x="145.737" y="16.842" fill="#FFFFFF" fill-opacity=".218"/>
    <rect width="30.829" height="2.807" x="145.737" y="11.228" fill="#FFFFFF" fill-opacity=".218"/>
    <rect width="30.829" height="2.807" x="145.737" y="5.614" fill="#FFFFFF" fill-opacity=".218"/>
    <rect width="30.829" height="2.807" x="145.737" fill="#FFFFFF" fill-opacity=".218"/>
    <rect width="30.829" height="2.807" x="72.868" y="157.193" fill="#4791B3"/>
    <rect width="30.829" height="2.807" x="72.868" y="151.579" fill="#4791B3"/>
    <rect width="30.829" height="2.807" x="72.868" y="145.965" fill="#4791B3"/>
    <rect width="30.829" height="2.807" x="72.868" y="140.351" fill="#4791B3"/>
    <rect width="30.829" height="2.807" x="72.868" y="134.737" fill="#4791B3"/>
    <rect width="30.829" height="2.807" x="72.868" y="129.123" fill="#4791B3"/>
    <rect width="30.829" height="2.807" x="72.868" y="123.509" fill="#4791B3"/>
    <rect width="30.829" height="2.807" x="72.868" y="117.895" fill="#4791B3"/>
    <rect width="30.829" height="2.807" x="72.868" y="112.281" fill="#4791B3"/>
    <rect width="30.829" height="2.807" x="72.868" y="106.667" fill="#4791B3"/>
    <rect width="30.829" height="2.807" x="72.868" y="101.053" fill="#4791B3"/>
    <rect width="30.829" height="2.807" x="72.868" y="95.439" fill="#4791B3"/>
    <rect width="30.829" height="2.807" x="72.868" y="89.825" fill="#4791B3"/>
    <rect width="30.829" height="2.807" x="72.868" y="84.211" fill="#4791B3"/>
    <rect width="30.829" height="2.807" x="72.868" y="78.596" fill="#4791B3"/>
    <rect width="30.829" height="2.807" x="72.868" y="72.982" fill="#BB783D"/>
    <rect width="30.829" height="2.807" x="72.868" y="67.368" fill="#BB783D"/>
    <rect width="30.829" height="2.807" x="72.868" y="61.754" fill="#BB783D"/>
    <rect width="30.829" height="2.807" x="72.868" y="56.14" fill="#BB783D"/>
    <rect width="30.829" height="2.807" x="72.868" y="50.526" fill="#BB783D"/>
    <rect width="30.829" height="2.807" x="72.868" y="44.912" fill="#BB783D"/>
    <rect width="30.829" height="2.807" x="72.868" y="39.298" fill="#FFFFFF" fill-opacity=".218"/>
    <rect width="30.829" height="2.807" x="72.868" y="33.684" fill="#FFFFFF" fill-opacity=".218"/>
    <rect width="30.829" height="2.807" x="72.868" y="28.07" fill="#FFFFFF"/>
    <rect width="30.829" height="2.807" x="72.868" y="22.456" fill="#FFFFFF" fill-opacity=".218"/>
    <rect width="30.829" height="2.807" x="72.868" y="16.842" fill="#FFFFFF" fill-opacity=".218"/>
    <rect width="30.829" height="2.807" x="72.868" y="11.228" fill="#FFFFFF" fill-opacity=".218"/>
    <rect width="30.829" height="2.807" x="72.868" y="5.614" fill="#FFFFFF" fill-opacity=".218"/>
    <rect width="30.829" height="2.807" x="72.868" fill="#FFFFFF" fill-opacity=".218"/>
    <rect width="30.829" height="2.807" x="182.171" y="157.193" fill="#4791B3"/>
    <rect width="30.829" height="2.807" x="182.171" y="151.579" fill="#4791B3"/>
    <rect width="30.829" height="2.807" x="182.171" y="145.965" fill="#4791B3"/>
    <rect width="30.829" height="2.807" x="182.171" y="140.351" fill="#4791B3"/>
    <rect width="30.829" height="2.807" x="182.171" y="134.737" fill="#4791B3"/>
    <rect width="30.829" height="2.807" x="182.171" y="129.123" fill="#4791B3"/>
    <rect width="30.829" height="2.807" x="182.171" y="123.509" fill="#4791B3"/>
    <rect width="30.829" height="2.807" x="182.171" y="117.895" fill="#4791B3"/>
    <rect width="30.829" height="2.807" x="182.171" y="112.281" fill="#4791B3"/>
    <rect width="30.829" height="2.807" x="182.171" y="106.667" fill="#4791B3"/>
    <rect width="30.829" height="2.807" x="182.171" y="101.053" fill="#4791B3"/>
    <rect width="30.829" height="2.807" x="182.171" y="95.439" fill="#4791B3"/>
    <rect width="30.829" height="2.807" x="182.171" y="89.825" fill="#4791B3"/>
    <rect width="30.829" height="2.807" x="182.171" y="84.211" fill="#4791B3"/>
    <rect width="30.829" height="2.807" x="182.171" y="78.596" fill="#4791B3"/>
    <rect width="30.829" height="2.807" x="182.171" y="72.982" fill="#BB783D"/>
    <rect width="30.829" height="2.807" x="182.171" y="67.368" fill="#BB783D"/>
    <rect width="30.829" height="2.807" x="182.171" y="61.754" fill="#FFFFFF" fill-opacity=".218"/>
    <rect width="30.829" height="2.807" x="182.171" y="56.14" fill="#FFFFFF" fill-opacity=".218"/>
    <rect width="30.829" height="2.807" x="182.171" y="50.526" fill="#FFFFFF" fill-opacity=".218"/>
    <rect width="30.829" height="2.807" x="182.171" y="44.912" fill="#FFFFFF"/>
    <rect width="30.829" height="2.807" x="182.171" y="39.298" fill="#FFFFFF" fill-opacity=".218"/>
    <rect width="30.829" height="2.807" x="182.171" y="33.684" fill="#FFFFFF" fill-opacity=".218"/>
    <rect width="30.829" height="2.807" x="182.171" y="28.07" fill="#FFFFFF" fill-opacity=".218"/>
    <rect width="30.829" height="2.807" x="182.171" y="22.456" fill="#FFFFFF" fill-opacity=".218"/>
    <rect width="30.829" height="2.807" x="182.171" y="16.842" fill="#FFFFFF" fill-opacity=".218"/>
    <rect width="30.829" height="2.807" x="182.171" y="11.228" fill="#FFFFFF" fill-opacity=".218"/>
    <rect width="30.829" height="2.807" x="182.171" y="5.614" fill="#FFFFFF" fill-opacity=".218"/>
    <rect width="30.829" height="2.807" x="182.171" fill="#FFFFFF" fill-opacity=".218"/>
  </g>
</svg>
