<svg xmlns="http://www.w3.org/2000/svg" width="320" height="240" viewBox="0 0 320 240" style="background:#2a5c6f">
  <g fill="none" fill-rule="evenodd">
    <g transform="rotate(13 -34.819 523.121)">
      <path fill="#F2CF20" d="M103.611239,46.6451456 C98.292193,56.3970739 90.2034663,64.6341396 78.4637967,65.0128552 C73.3021189,65.1706534 66.0002333,64.4763414 64.1747619,58.7640468 C62.0345541,52.0418438 70.3121227,45.8561547 72.4838042,40.0491812 C85.5138932,5.11266143 34.652483,-16.2847734 19.9542909,17.1368837 C15.6424015,26.9203716 20.741132,37.6506487 24.7382849,46.9291824 C27.476492,53.335789 29.7111208,56.4917528 25.9342834,62.7090016 C22.1259724,68.95781 18.0029249,71.8612968 17.5937675,79.9721238 C15.8941907,112.920386 52.025935,117.780571 76.2606416,114.466809 C108.017549,110.080019 127.877419,71.7034986 103.611239,46.6451456 L103.611239,46.6451456 Z"/>
      <path fill="#FC8832" d="M18.789766,26.1313806 C18.6009241,25.9104632 18.2861877,25.8473439 18.0343985,26.0051421 C16.8384,26.6994541 13.2818781,28.5930324 8.93851515,28.8455095 C4.31188935,29.1295463 1.2589458,28.6877114 0.377683739,31.338721 C-0.503578318,33.9897306 6.48357085,38.755236 8.49788412,40.0176216 C10.8898811,41.5009246 16.0200852,44.341292 18.9471342,45.477439 C21.8741832,46.613586 24.6753376,47.6550541 26.0916516,46.6451456 C27.476492,45.6352372 30.6553301,43.8678975 32.1660651,41.4378053 C33.6768,39.0077131 32.0401705,36.1989053 30.2776464,34.9680794 C28.5465959,33.7372535 25.5880733,32.9482625 23.1960763,30.896886 C21.4964995,29.413583 19.5451335,27.0781698 18.789766,26.1313806 L18.789766,26.1313806 Z"/>
      <path fill="#CEAD21" d="M95.5025828,69.2749029 C95.5025828,69.2749029 72.7786112,77.732886 61.9202037,70.221692 C53.9573716,64.6987553 43.0989641,65.8349023 37.2448661,74.2928854 C33.7198179,79.3739872 32.1776093,93.2602281 46.8128542,96.7002287 C61.4480991,100.140229 69.3479839,95.7849992 77.2793424,89.7886679 C85.1477537,83.7923366 95.5025828,69.2749029 95.5025828,69.2749029 L95.5025828,69.2749029 Z"/>
      <ellipse cx="28.421" cy="21.681" fill="#F6F6F6" rx="6.358" ry="8.363"/>
      <ellipse cx="25.18" cy="24.961" fill="#1D1D1B" transform="rotate(-7.158 25.18 24.961)" rx="2.298" ry="4.513"/>
    </g>
    <g stroke="#00979C" transform="translate(75 134)">
      <polygon fill="#00979C" stroke-width="5.184" points="131.41 47.454 131.41 38.773 122.898 38.773 122.898 35.146 131.41 35.146 131.41 26.53 135.036 26.53 135.036 35.146 143.548 35.146 143.548 38.773 135.036 38.773 135.036 47.454"/>
      <polygon fill="#00979C" stroke-width="7.316" points="29.127 40.119 29.127 37.169 50.924 37.169 50.924 40.119"/>
      <path stroke-opacity="100" stroke-width="15.552" d="M38.7821719,1.19753315 C17.7535021,1.19753315 0.706397006,17.7962689 0.706397006,38.2718471 C0.706397006,58.7474252 17.7535021,75.346161 38.7821719,75.346161 C88.4878944,77.9943262 83.2557131,1.19753315 135.577526,1.19753315 C156.606196,1.19753315 173.653301,17.7962689 173.653301,38.2718471 C173.653301,58.7474252 156.606196,75.346161 135.577526,75.346161 C85.8718037,77.9943262 91.103985,1.19753315 38.7821719,1.19753315"/>
    </g>
    <g transform="translate(66 50)">
      <circle cx="10.5" cy="40.5" r="10.5" stroke="#00979C" stroke-width="4.05"/>
      <circle cx="166.5" cy="58.5" r="10.5" stroke="#00979C" stroke-width="4.05"/>
      <ellipse cx="133.5" cy="27.5" stroke="#00979C" stroke-width="4.05" rx="7.5" ry="7.5"/>
      <circle cx="33.5" cy="66.5" r="6.5" stroke="#00979C" stroke-width="3.038"/>
      <circle cx="162.5" cy="28.5" r="6.5" stroke="#00979C" stroke-width="3.038"/>
      <circle cx="40.5" cy="35.5" r="5.5" stroke="#00979C" stroke-width="3.038"/>
      <circle cx="22" cy="12" r="4" fill="#00979C"/>
      <circle cx="184" cy="31" r="4" fill="#00979C"/>
      <circle cx="149.5" cy="5.5" r="5.5" stroke="#00979C" stroke-width="3.038"/>
    </g>
  </g>
</svg>
