<svg xmlns="http://www.w3.org/2000/svg" width="320" height="240" viewBox="0 0 320 240" style="background:#e0e0e0">
  <g fill="none" fill-rule="evenodd">
    <g fill="#1C479B" fill-opacity=".4" stroke="#1D1D1B" transform="translate(70 41)">
      <path d="M90.4,78.4 C90.4,103.3 70.2,111.8 45.4,97.4 C20.5,83 0.4,51.2 0.4,26.4 C0.4,1.6 20.6,-7 45.4,7.4 C70.2,21.8 90.4,53.6 90.4,78.4 L90.4,78.4 Z"/>
      <path d="M90.1,78.4 C90.1,103.3 110.3,111.8 135.1,97.4 C160,83 180.1,51.2 180.1,26.4 C180.1,1.6 159.9,-7 135.1,7.4 C110.3,21.8 90.1,53.6 90.1,78.4 L90.1,78.4 Z"/>
      <path d="M180.1,130.2 C180.1,155.1 159.9,163.6 135.1,149.2 C110.2,134.8 90.1,103 90.1,78.2 C90.1,53.4 110.3,44.8 135.1,59.2 C159.9,73.6 180.1,105.4 180.1,130.2 L180.1,130.2 Z"/>
      <path d="M0.4,130.2 C0.4,155.1 20.6,163.6 45.4,149.2 C70.3,134.8 90.4,103 90.4,78.2 C90.4,53.4 70.2,44.8 45.4,59.2 C20.6,73.6 0.4,105.4 0.4,130.2 L0.4,130.2 Z"/>
    </g>
    <g fill="#373735" fill-opacity=".7" transform="translate(43 14)">
      <polygon points="116.5 106.4 116.5 200.5 111.6 198.4 117.4 212.3 123.3 198.4 118.4 200.5 118.4 106.4"/>
      <polygon points="118 106.3 118 12.2 122.9 14.3 117.1 .4 111.2 14.3 116.1 12.2 116.1 106.3"/>
      <polygon points="117.5 105.5 11 43.8 15.3 40.6 .3 38.7 9.4 50.7 10.1 45.4 116.6 107.2"/>
      <polygon points="117.5 107.2 224 45.4 224.7 50.7 233.7 38.7 218.8 40.6 223 43.8 116.5 105.5"/>
      <polygon points="116.6 105.5 10.1 167.2 9.4 161.9 .3 174 15.3 172.1 11 168.9 117.5 107.2"/>
      <polygon points="116.5 107.2 223 168.9 218.8 172.1 233.7 174 224.7 161.9 224 167.2 117.5 105.5"/>
    </g>
  </g>
</svg>
